<svg viewBox="0 0 704.24 437.208" xmlns="http://www.w3.org/2000/svg" xmlns:xlink="http://www.w3.org/1999/xlink" width="704.239929" height="437.207947" fill="none" customFrame="#000000">
	<defs>
		<clipPath id="clipPath_0">
			<rect width="704.239929" height="437.207947" x="0.000000" y="0.000000" fill="rgb(255,255,255)" />
		</clipPath>
	</defs>
	<g id="hero-img">
		<g id=" " clip-path="url(#clipPath_0)" customFrame="url(#clipPath_0)">
			<rect id=" " width="704.239929" height="437.207947" x="0.000000" y="0.000000" />
			<path id="Vector 6" d="M0 416.364C0 417.027 0.510131 417.56 1.14539 417.56L703.095 417.56C703.73 417.56 704.24 417.027 704.24 416.364C704.24 415.701 703.73 415.168 703.095 415.168L1.14539 415.168C0.510131 415.168 0 415.701 0 416.364Z" fill="rgb(9,8,20)" fill-rule="nonzero" />
			<ellipse id="Oval 3" rx="51.975552" ry="54.270458" cx="425.987762" cy="363.148865" fill="rgb(9,8,20)" />
			<ellipse id="Oval 4" rx="34.650375" ry="36.180283" cx="425.987793" cy="363.148865" fill="rgb(255,255,255)" />
			<ellipse id="Oval 5" rx="19.731445" ry="20.602692" cx="425.987793" cy="363.148895" fill="rgb(9,8,20)" />
			<ellipse id="Oval 6" rx="51.975567" ry="54.270458" cx="125.684616" cy="363.148865" fill="rgb(9,8,20)" />
			<ellipse id="Oval 7" rx="34.650379" ry="36.180283" cx="125.684616" cy="363.148865" fill="rgb(255,255,255)" />
			<path id="Vector 7" d="M497.088 337.34C490.322 319.521 466.664 265.08 424.525 247.06C424.198 246.92 423.861 246.829 423.514 246.779L288.368 226.568C286.145 226.237 284.066 227.824 283.71 230.146L281.342 245.422C281.178 246.467 281.39 247.543 281.939 248.437C288.801 259.553 332.788 335.019 262.351 335.019C191.915 335.019 172.501 282.386 169.421 273.09C169.132 272.216 169.123 271.271 169.383 270.387L190.731 199.785C191.106 198.528 190.904 197.242 190.288 196.217L199.673 178.016L216.863 188.177L225.766 188.287L256.153 204.87L262.342 194.317L199.673 161.675C199.673 161.675 199.779 154.117 179.566 148.087L147.803 133.012L143.953 138.037L153.578 146.077L154.541 152.107L161.278 154.117L174.753 181.252L170.903 189.031L175.581 191.413L174.243 191.091C172.309 190.629 170.335 191.674 169.546 193.574L148.313 244.387C147.986 245.161 147.447 245.824 146.764 246.286L139.198 251.382C138.496 251.854 137.937 252.548 137.62 253.362L128.976 275.241C128.707 275.924 128.63 276.638 128.697 277.331C117.927 279.462 86.2698 288.668 68.8773 324.979L89.09 342.064C89.09 342.064 120.776 320.657 173.136 342.948C182.242 357.742 195.515 370.013 214.688 371.169C265.229 374.224 348.968 377.239 358.593 365.179C365.638 356.345 370.538 350.837 372.665 348.516C373.415 347.702 374.436 347.229 375.514 347.189L493.373 343.26C496.232 343.169 498.128 340.134 497.079 337.36L497.088 337.34Z" fill="rgb(37,99,235)" fill-rule="nonzero" />
			<ellipse id="Oval 8" rx="15.400156" ry="16.080149" cx="171.885086" cy="163.152176" fill="rgb(9,8,20)" />
			<path id="Vector 8" d="M418.509 247.131C418.326 247.131 418.143 247.131 417.96 247.121L289.196 241.915C283.498 241.684 278.618 237.895 276.76 232.267L274.999 226.91C273.565 222.548 274.19 217.865 276.712 214.076C279.243 210.287 283.228 208.056 287.646 207.945L420.684 204.749C424.804 204.649 428.769 206.488 431.455 209.805C434.14 213.121 435.237 217.463 434.458 221.734L431.946 235.483C430.704 242.307 425.093 247.121 418.499 247.121L418.509 247.131Z" fill="rgb(9,8,20)" fill-rule="nonzero" />
			<ellipse id="Oval 9" rx="19.731457" ry="20.602692" cx="125.684586" cy="363.148895" fill="rgb(9,8,20)" />
			<path id="Vector 9" d="M470.244 304.497C467.164 304.497 464.228 302.778 462.659 299.813L452.909 281.381C451.36 278.457 451.456 275.03 453.15 272.206C454.844 269.372 457.77 267.784 460.946 267.965L478.647 268.909C481.938 269.09 484.903 271.251 486.193 274.427L491.361 287.19C492.305 289.532 492.285 292.085 491.294 294.406C490.303 296.718 488.493 298.456 486.202 299.281L473.093 304.004C472.159 304.346 471.197 304.507 470.254 304.507L470.244 304.497Z" fill="rgb(9,8,20)" fill-rule="nonzero" />
			<path id="Vector 10" d="M246.412 426.997C246.268 426.997 246.114 426.997 245.97 426.967L242.042 426.515C240.762 426.364 239.646 425.61 238.991 424.444C238.337 423.279 238.25 421.902 238.751 420.655L259.194 369.963L259.637 370.154L259.194 369.963C259.753 368.576 260.994 367.591 262.428 367.4C263.824 367.219 265.181 367.792 266.076 368.928C266.962 370.063 267.231 371.571 266.779 372.958L250.272 424.103C249.714 425.831 248.135 426.987 246.422 426.987L246.412 426.997Z" fill="rgb(9,8,20)" fill-rule="nonzero" />
			<path id="Vector 11" d="M352.548 73.2441C352.548 73.2441 345.07 57.6263 346.561 43.5762L321.671 57.0433L322.633 82.6108L352.548 73.2441Z" fill="rgb(218,138,141)" fill-rule="nonzero" />
			<ellipse id="Oval 10" rx="22.455370" ry="23.446844" cx="337.100037" cy="40.8124771" fill="rgb(218,138,141)" />
			<path id="Vector 12" d="M360.037 408.967L346.33 408.967L339.814 353.782L360.037 353.782L360.037 408.967Z" fill="rgb(218,138,141)" fill-rule="nonzero" />
			<path id="Vector 13" d="M313.095 408.636C312.671 409.389 312.44 411.811 312.44 412.676C312.44 415.359 314.519 417.53 317.089 417.53L359.517 417.53C361.269 417.53 362.693 416.042 362.693 414.213L362.693 412.364C362.693 412.364 364.791 406.816 360.47 399.992C360.47 399.992 355.099 405.339 347.072 396.967L344.704 392.495L327.571 405.58L318.071 406.796C315.992 407.068 314.154 406.756 313.085 408.635L313.095 408.636Z" fill="rgb(9,8,20)" fill-rule="nonzero" />
			<path id="Vector 14" d="M319.64 73.2441L352.548 68.5608L377.978 81.053L379.47 177.876C379.47 177.876 316.926 185.684 307.07 175.534C297.214 165.383 304.692 84.1786 304.692 84.1786L319.65 73.2441L319.64 73.2441L319.64 73.2441Z" fill="rgb(37,99,235)" fill-rule="nonzero" />
			<path id="Vector 15" d="M331.479 46.7822L325.444 46.7822C325.444 46.7822 320.208 40.0487 320.911 44.1491C321.613 48.2495 318.793 52.6615 318.793 52.6615L314.568 51.1942C314.568 51.1942 306.117 14.0792 331.479 12.0391C356.841 9.99891 362.481 30.6016 362.481 30.6016C362.481 30.6016 361.076 40.9029 358.256 37.9583C355.436 35.0136 339.939 33.5463 339.939 33.5463L331.488 46.7923L331.479 46.7822L331.479 46.7822Z" fill="rgb(9,8,20)" fill-rule="nonzero" />
			<path id="Vector 16" d="M315.511 396.565L302.334 400.445L281.698 349.199L301.16 343.461L315.511 396.565Z" fill="rgb(218,138,141)" fill-rule="nonzero" />
			<path id="Vector 17" d="M270.254 409.57C270.042 410.414 270.456 412.806 270.677 413.651C271.37 416.233 273.94 417.731 276.414 417.007L317.243 404.967C318.928 404.475 319.909 402.636 319.438 400.877L318.957 399.098C318.957 399.098 319.534 393.168 313.595 387.822C313.595 387.822 309.822 394.495 299.918 388.706L296.472 385.068L283.392 402.515L274.575 406.384C272.65 407.229 270.793 407.46 270.254 409.57L270.254 409.57Z" fill="rgb(9,8,20)" fill-rule="nonzero" />
			<path id="Vector 18" d="M374.975 168.509L379.46 182.679L379.46 231.372L365.995 378.345L339.699 378.345L336.734 273.432L339.073 221.614L288.917 300.848L310.958 357.44L286.693 374.335C286.693 374.335 250.407 287.994 255.835 279.623C261.264 271.261 309.89 172.499 309.89 172.499C309.89 172.499 374.956 170.077 374.956 168.519L374.975 168.509Z" fill="rgb(9,8,20)" fill-rule="nonzero" />
			<path id="Vector 19" d="M388.44 112.289L395.669 124.65C395.669 124.65 405.891 166.599 395.669 166.77C385.447 166.941 364.811 145.394 364.811 145.394L367.506 134.148L374.984 137.273L373.493 112.289L388.45 112.289L388.44 112.289Z" fill="rgb(218,138,141)" fill-rule="nonzero" />
			<path id="Vector 20" d="M366.004 80.8621C366.004 80.8621 389.932 76.4601 392.175 92.8116C394.417 109.163 395.669 124.66 395.669 124.66L369.739 126.902L366.004 80.8621L366.004 80.8621Z" fill="rgb(37,99,235)" fill-rule="nonzero" />
			<path id="Vector 21" d="M568.343 308.326C565.302 308.667 561.981 309.18 558.448 309.934C543.481 313.12 543.164 323.732 543.299 326.165L543.193 326.094C541.691 328.617 540.748 331.17 540.17 333.572L539.487 301.039C539.93 300.075 540.334 298.979 540.671 297.864C541.787 301.472 543.626 304.868 545.214 304.647C547.274 304.356 548.169 298.024 547.784 293.532C550.402 297.049 554.81 300.818 556.475 299.652C557.804 298.728 557.014 294.909 555.57 291.432C558.593 293.331 561.942 294.577 562.982 293.371C564.397 291.723 560.999 286.105 557.871 282.969C562.058 283.381 567.39 282.678 567.746 280.688C568.035 279.05 564.859 276.979 561.461 275.643C564.868 274.708 568.064 273.07 567.958 271.452C567.833 269.532 563.097 268.236 559.007 268.045C562.087 265.532 564.917 262.045 564.05 260.477C563.251 259.03 559.555 259.593 556.138 260.869C558.16 257.854 559.584 254.447 558.497 253.281C557.149 251.834 552.365 254.337 549.093 257.1C549.728 252.789 549.41 247.352 547.553 246.859C546.003 246.447 543.809 249.613 542.307 253.06C541.643 249.442 540.295 246.005 538.746 246.005C536.532 246.005 534.742 252.97 534.742 257.512C534.742 257.774 534.742 258.015 534.761 258.246C534.54 257.975 534.28 257.693 533.991 257.402C530.873 254.236 524.838 250.729 523.288 252.387C522.21 253.553 523.625 256.95 525.646 259.975C522.229 258.698 518.523 258.136 517.734 259.583C516.666 261.522 521.238 266.377 524.953 268.728C524.732 268.698 524.491 268.678 524.241 268.658C519.9 268.346 513.124 269.743 512.97 272.045C512.864 273.663 516.05 275.301 519.467 276.236C516.069 277.572 512.902 279.643 513.182 281.281C513.528 283.271 518.86 283.974 523.057 283.562C519.929 286.698 516.531 292.316 517.946 293.964C518.986 295.17 522.335 293.924 525.357 292.024C523.904 295.502 523.124 299.321 524.453 300.245C526.204 301.472 531.027 297.2 533.558 293.532C533.298 298.024 534.328 304.195 536.368 304.436C537.225 304.537 538.13 303.582 538.948 302.125L536.638 337.089C536.099 341.159 539.554 343.823 539.862 345.491L540.363 369.169C539.795 367.48 539.044 365.752 538.014 364.043L537.909 364.114C538.043 361.682 537.726 351.069 522.759 347.883C519.226 347.129 515.906 346.617 512.864 346.275C509.274 345.873 507.868 351.008 511.112 352.667C515.809 355.069 520.227 358.094 522.537 361.672C528.428 370.827 536.561 365.541 537.726 364.717C539.015 366.968 539.862 369.229 540.401 371.38L540.671 383.953C540.604 384.254 540.565 384.415 540.555 384.425L540.681 384.465L541.325 414.897L547.274 414.847L545.147 383.742C545.503 382.063 546.6 376.345 545.147 370.415L543.019 345.973L540.247 336.365C540.652 333.391 541.585 330.054 543.491 326.747C544.646 327.572 552.789 332.868 558.68 323.702C560.98 320.124 565.407 317.099 570.104 314.697C573.348 313.039 571.953 307.904 568.353 308.306L568.343 308.326ZM541.171 380.324L541.056 374.998C541.277 377.008 541.268 378.827 541.171 380.324Z" fill="rgb(242,242,242)" fill-rule="nonzero" />
			<path id="Vector 22" d="M499.071 411.118L509.418 408.786L505.713 366.033L490.457 369.47L499.071 411.118Z" fill="rgb(218,138,141)" fill-rule="nonzero" />
			<path id="Vector 23" d="M534.453 402.887C534.896 403.379 535.445 405.168 535.579 405.832C536.003 407.852 534.771 409.852 532.827 410.284L500.804 417.51C499.485 417.811 498.176 416.927 497.887 415.55L497.599 414.153C497.599 414.153 495.144 410.324 497.339 404.435C497.339 404.435 502.228 407.56 506.973 399.862L508.061 396.083L523.038 403.038L530.391 402.344C531.999 402.193 533.346 401.641 534.444 402.887L534.453 402.887Z" fill="rgb(9,8,20)" fill-rule="nonzero" />
			<path id="Vector 24" d="M517.571 407.852L526.195 401.46L506.685 363.672L493.951 373.098L517.571 407.852Z" fill="rgb(218,138,141)" fill-rule="nonzero" />
			<path id="Vector 25" d="M546.995 385.741C547.582 386.013 548.766 387.43 549.131 387.983C550.277 389.671 549.901 392.013 548.284 393.209L521.565 413.007C520.458 413.821 518.937 413.55 518.148 412.404L517.359 411.239C517.359 411.239 513.663 408.726 513.461 402.405C513.461 402.405 519.13 403.269 520.602 394.244L520.179 390.324L536.571 390.566L543.077 386.907C544.502 386.103 545.532 385.048 547.004 385.741L546.995 385.741Z" fill="rgb(9,8,20)" fill-rule="nonzero" />
			<path id="Vector 26" d="M393.282 196.448C393.282 196.448 377.198 219.282 409.365 244.96L475.057 223.041L451.591 171.946L430.81 160.047L393.272 196.438L393.282 196.448Z" fill="rgb(9,8,20)" fill-rule="nonzero" />
			<path id="Vector 27" d="M475.066 223.051L500.534 274.839L516.627 382.636L496.521 384.033L476.404 281.844L440.878 226.548L465.682 214.649" fill="rgb(9,8,20)" fill-rule="nonzero" />
			<path id="Vector 28" d="M409.375 228.699L409.375 244.97L454.959 297.24C454.959 297.24 454.959 336.436 472.39 354.636L492.497 386.837L509.928 377.038L484.46 283.251L438.876 221.654L409.384 228.699L409.375 228.699Z" fill="rgb(9,8,20)" fill-rule="nonzero" />
			<path id="Vector 29" d="M441.763 67.405L433.178 101.585L400.443 94.8618C400.443 94.8618 423.283 70.2693 420.068 59.0634L441.773 67.405L441.763 67.405L441.763 67.405Z" fill="rgb(218,138,141)" fill-rule="nonzero" />
			<path id="Vector 30" d="M416.748 72.5607L436.855 82.3595C436.855 82.3595 447.202 88.9624 447.394 93.3644C447.587 97.7663 446.239 118.761 446.239 118.761C446.239 118.761 454.286 127.163 448.924 143.957L451.61 171.956L391.28 205.553L396.641 146.76L393.955 92.1684L416.748 72.5708L416.748 72.5607Z" fill="rgb(9,8,20)" fill-rule="nonzero" />
			<path id="uuid-b20491ca-d014-4267-80bf-8d89e5c8d575-253" d="M398.701 231.875C401.059 237.513 405.756 240.819 409.192 239.251C412.628 237.684 413.504 231.845 411.156 226.206C410.241 223.935 408.826 221.935 407.017 220.357L396.747 196.589L386.169 201.855L397.411 224.729C397.286 227.181 397.729 229.634 398.701 231.875Z" fill="rgb(218,138,141)" fill-rule="nonzero" />
			<path id="Vector 31" d="M409.375 95.6658C409.375 95.6658 394.629 85.867 389.268 97.0628C383.907 108.259 371.837 165.655 371.837 165.655L389.268 220.247L405.352 213.252L391.27 154.499L409.365 95.6658L409.375 95.6658L409.375 95.6658Z" fill="rgb(9,8,20)" fill-rule="nonzero" />
			<path id="uuid-d10d18a7-d2df-49f8-8380-3f7f98fc3932-254" d="M484.961 223.061C489.138 227.402 494.673 228.669 497.319 225.885C499.966 223.101 498.715 217.342 494.538 213.001C492.892 211.242 490.861 209.925 488.628 209.151L470.696 191.001L462.717 199.966L481.236 216.9C481.987 219.232 483.267 221.342 484.961 223.051L484.961 223.061Z" fill="rgb(218,138,141)" fill-rule="nonzero" />
			<path id="Vector 32" d="M446.826 92.3192C446.826 92.3192 421.118 91.2237 420.078 103.696C419.048 116.168 436.624 171.825 436.624 171.825L472.092 215.875L484.576 203.182L450.763 153.976L446.836 92.3192L446.826 92.3192Z" fill="rgb(9,8,20)" fill-rule="nonzero" />
			<ellipse id="Oval 11" rx="8.123627" ry="8.482269" cx="563.674927" cy="415.57016" fill="rgb(9,8,20)" />
			<ellipse id="Oval 12" rx="8.123596" ry="8.482254" cx="574.503235" cy="428.725708" fill="rgb(9,8,20)" />
			<ellipse id="Oval 13" rx="8.123626" ry="8.482254" cx="655.719788" cy="428.725708" fill="rgb(9,8,20)" />
			<path id="Vector 33" d="M586.4 301.793L586.4 209.684C586.4 199.373 594.658 196.82 604.533 196.82C609.375 196.82 611.723 196.237 615.121 199.835C618.519 203.433 622.292 204.93 622.215 209.986L620.79 300.366L586.39 301.783L586.4 301.793ZM605.496 202.86C596.679 202.86 588.325 200.488 588.325 209.694L588.325 299.713L618.904 298.446L620.299 209.965C620.367 205.453 613.34 206.076 610.318 202.86C607.286 199.644 609.827 202.86 605.506 202.86L605.496 202.86Z" fill="rgb(9,8,20)" fill-rule="nonzero" />
			<path id="Vector 34" d="M562.221 300.678L560.989 401.309C560.97 402.606 561.268 403.882 561.846 405.028L570.951 422.987C572.289 425.63 574.965 427.228 577.824 427.098L657.77 423.419C661.861 423.228 665.027 419.61 664.844 415.339L659.83 300.436C659.647 296.306 656.393 293.05 652.428 293.05L569.623 293.05C565.571 293.05 562.27 296.457 562.212 300.688L562.221 300.678Z" fill="rgb(202,202,202)" fill-rule="nonzero" />
			<path id="Vector 35" d="M593.734 346.094L591.809 345.993L592.521 331.099C592.906 323.079 599.23 316.647 606.921 316.456L640.965 315.632C647.837 315.511 653.535 320.949 653.91 328.124L654.632 341.742L652.707 341.853L651.985 328.235C651.658 322.155 646.797 317.491 641.003 317.642L606.959 318.466C600.27 318.627 594.774 324.225 594.437 331.2L593.725 346.094L593.734 346.094Z" fill="rgb(9,8,20)" fill-rule="nonzero" />
			<path id="Vector 36" d="M592.377 418.233L590.462 418.032L594.61 375.762C595.38 367.943 601.627 361.782 609.144 361.43L642.35 359.873C646.537 359.672 650.513 361.219 653.554 364.224C656.596 367.229 658.29 371.289 658.338 375.661L658.713 412.465L656.788 412.485L656.413 375.681C656.374 371.862 654.892 368.315 652.235 365.681C649.579 363.048 646.085 361.702 642.447 361.872L609.24 363.43C602.666 363.742 597.209 369.119 596.535 375.953L592.387 418.223L592.377 418.233Z" fill="rgb(9,8,20)" fill-rule="nonzero" />
			<path id="Vector 37" d="M577.497 415.309L575.572 415.279L576.784 318.677C576.871 312.074 581.886 306.748 588.209 306.547L653.66 304.537L653.718 306.547L588.267 308.557C582.973 308.718 578.777 313.17 578.709 318.697L577.497 415.299L577.497 415.309Z" fill="rgb(9,8,20)" fill-rule="nonzero" />
			<path id="Vector 38" d="M577.67 401.55L576.332 401.55L576.332 313.572C576.332 310.788 574.166 308.517 571.49 308.517L564.012 308.517L564.012 306.507L571.49 306.507C575.023 306.507 577.93 309.351 578.228 312.949C578.247 313.15 578.257 313.361 578.257 313.572L578.257 355.229L577.67 401.55Z" fill="rgb(9,8,20)" fill-rule="nonzero" />
			<path id="Vector 39" d="M455.739 49.1339C455.739 62.0181 445.739 72.4602 433.399 72.4602C421.06 72.4602 411.059 62.0181 411.059 49.1339C411.059 36.2497 421.06 25.8077 433.399 25.8077C445.739 25.8077 455.739 36.2497 455.739 49.1339L455.739 49.1339Z" fill="rgb(218,138,141)" fill-rule="nonzero" />
			<path id="Vector 40" d="M431.618 17.7777C432.263 18.1696 433.13 17.5767 433.341 16.8229C433.553 16.0692 433.303 15.2752 433.072 14.5315C432.668 13.2853 432.273 12.0491 431.869 10.8029C431.012 8.15974 430.107 5.42612 428.259 3.4161C425.468 0.380977 421.021 -0.39288 417.027 0.169925C411.897 0.893531 406.834 3.78796 404.447 8.5919C402.06 13.3958 403.08 20.0892 407.392 23.0841C401.242 30.4408 399.105 38.6417 399.442 48.3902C399.779 58.1489 409.962 67.1236 416.603 73.9979C418.086 73.0632 419.433 68.6613 418.615 67.0633C417.797 65.4653 418.971 63.6161 417.96 62.1388C416.95 60.6714 416.103 63.0131 417.123 61.5458C417.768 60.6212 415.256 58.5006 416.209 57.9479C420.838 55.2745 422.378 49.2445 425.285 44.6315C428.798 39.0638 434.795 35.295 441.157 34.6719C444.66 34.3302 448.357 34.9533 451.225 37.0738C454.093 39.1944 455.951 42.9833 455.287 46.5913C457.009 44.7622 457.866 42.0888 457.548 39.5462C457.221 37.0035 455.729 34.6518 453.602 33.3553C454.892 28.9031 453.785 23.7776 450.792 20.3404C447.798 16.8933 435.661 17.4862 431.291 18.3907L431.628 17.7877L431.618 17.7777L431.618 17.7777Z" fill="rgb(9,8,20)" fill-rule="nonzero" />
			<path id="Vector 41" d="M430.945 34.8025C425.16 35.4558 420.983 40.6919 417.45 45.526C415.419 48.3098 413.283 51.3852 413.34 54.8926C413.389 58.4303 415.66 61.4754 416.748 64.8221C418.519 70.3095 416.796 76.832 412.58 80.5907C416.748 81.4148 421.252 78.1586 421.965 73.7868C422.802 68.7115 419.116 63.8071 419.549 58.6715C419.934 54.1489 423.351 50.6716 426.248 47.2847C429.155 43.8979 431.878 39.4155 430.541 35.094L430.945 34.8025L430.945 34.8025L430.945 34.8025Z" fill="rgb(9,8,20)" fill-rule="nonzero" />
			<path id="Vector 42" d="M312.887 189.28L279.121 159.236C278.319 158.523 278.256 157.221 278.98 156.334L333.666 89.3258C334.39 88.4388 335.631 88.2976 336.433 89.0112L370.199 119.055C371.001 119.769 371.064 121.071 370.34 121.958L315.654 188.966C314.93 189.853 313.689 189.994 312.887 189.28Z" fill="rgb(255,255,255)" fill-rule="nonzero" />
			<path id="Vector 43" d="M279.121 159.236C278.319 158.523 278.256 157.221 278.98 156.334L333.666 89.3258C334.39 88.4388 335.631 88.2976 336.433 89.0112L370.199 119.055C371.001 119.769 371.064 121.071 370.34 121.958L315.654 188.966C314.93 189.853 313.689 189.994 312.887 189.28L279.121 159.236Z" fill-rule="nonzero" stroke="rgb(47,46,65)" stroke-width="1" />
			<path id="Vector 44" d="M296.617 92.882L283.026 95.8166C283.026 95.8166 246.701 116.691 253.573 124.6C260.436 132.509 289.61 133.525 289.61 133.525L295.635 123.786L288.339 120.218L306.839 104.289L296.617 92.882L296.617 92.882Z" fill="rgb(218,138,141)" fill-rule="nonzero" />
			<path id="Vector 45" d="M333.924 88.5102C333.924 88.5102 320.651 67.2543 307.686 76.7214C294.721 86.1886 283.036 95.8166 283.036 95.8166L299.187 117.113L333.933 88.5102L333.924 88.5102L333.924 88.5102Z" fill="rgb(37,99,235)" fill-rule="nonzero" />
			<ellipse id="Oval 14" rx="7.043656" ry="13.527974" cx="7.04365635" cy="13.5279741" fill="rgb(218,138,141)" transform="matrix(0.190265,-0.981733,0.978397,0.206732,284.855,134.625)" />
			<ellipse id="Oval 15" rx="6.956175" ry="13.707592" cx="6.95617485" cy="13.707592" fill="rgb(218,138,141)" transform="matrix(0.563508,-0.82611,0.802425,0.596753,345.283,133.411)" />
		</g>
	</g>
</svg>
