<svg viewBox="0 0 1085.41 673.847" xmlns="http://www.w3.org/2000/svg" xmlns:xlink="http://www.w3.org/1999/xlink" width="1085.410645" height="673.847107" fill="none" customFrame="#000000">
	<defs>
		<clipPath id="clipPath_1">
			<rect width="1085.410400" height="673.847107" x="0.000000" y="0.000000" fill="rgb(255,255,255)" />
		</clipPath>
	</defs>
	<g id="hero-img">
		<g id=" " clip-path="url(#clipPath_1)" customFrame="url(#clipPath_1)">
			<rect id=" " width="1085.410400" height="673.847107" x="0.000000" y="0.000000" />
			<path id="Vector 6" d="M0 641.721C0 642.744 0.786239 643.565 1.76533 643.565L1083.65 643.565C1084.62 643.565 1085.41 642.744 1085.41 641.721C1085.41 640.699 1084.62 639.878 1083.65 639.878L1.76533 639.878C0.786239 639.878 0 640.699 0 641.721Z" fill="rgb(9,8,20)" fill-rule="nonzero" />
			<ellipse id="Oval 3" rx="80.107353" ry="83.644386" cx="656.554138" cy="559.703491" fill="rgb(9,8,20)" />
			<ellipse id="Oval 4" rx="53.404907" ry="55.762909" cx="656.553833" cy="559.703491" fill="rgb(255,255,255)" />
			<ellipse id="Oval 5" rx="30.411102" ry="31.753906" cx="656.554199" cy="559.703491" fill="rgb(9,8,20)" />
			<ellipse id="Oval 6" rx="80.107376" ry="83.644386" cx="193.71138" cy="559.703491" fill="rgb(9,8,20)" />
			<ellipse id="Oval 7" rx="53.404922" ry="55.762909" cx="193.711563" cy="559.703491" fill="rgb(255,255,255)" />
			<path id="Vector 7" d="M766.138 519.926C755.709 492.463 719.246 408.555 654.299 380.782C653.795 380.565 653.276 380.426 652.742 380.348L444.448 349.198C441.021 348.687 437.817 351.135 437.268 354.713L433.618 378.257C433.366 379.868 433.693 381.525 434.538 382.904C445.115 400.036 512.91 516.348 404.349 516.348C295.789 516.348 265.868 435.228 261.12 420.9C260.675 419.553 260.661 418.097 261.061 416.734L293.964 307.918C294.543 305.982 294.232 304 293.282 302.42L307.746 274.368L334.241 290.028L347.963 290.198L394.796 315.756L404.335 299.492L307.746 249.181C307.746 249.181 307.909 237.533 276.756 228.239L227.802 205.005L221.868 212.75L236.703 225.141L238.186 234.435L248.57 237.533L269.339 279.355L263.405 291.344L270.615 295.015L268.553 294.52C265.571 293.807 262.53 295.418 261.313 298.346L228.588 376.662C228.084 377.854 227.253 378.877 226.2 379.589L214.539 387.443C213.457 388.171 212.596 389.239 212.107 390.494L198.785 424.215C198.37 425.268 198.251 426.368 198.355 427.437C181.755 430.721 132.964 444.909 106.157 500.874L137.31 527.206C137.31 527.206 186.146 494.213 266.847 528.569C280.88 551.37 301.337 570.283 330.888 572.064C408.785 576.773 537.847 581.42 552.682 562.832C563.541 549.217 571.091 540.729 574.37 537.15C575.527 535.896 577.099 535.168 578.761 535.106L760.412 529.049C764.818 528.91 767.74 524.232 766.123 519.957L766.138 519.926Z" fill="rgb(255,149,84)" fill-rule="nonzero" />
			<ellipse id="Oval 8" rx="23.735500" ry="24.783535" cx="264.918121" cy="251.458405" fill="rgb(9,8,20)" />
			<path id="Vector 8" d="M645.027 380.89C644.745 380.89 644.464 380.89 644.182 380.875L445.723 372.851C436.941 372.495 429.42 366.655 426.557 357.981L423.842 349.725C421.632 343.003 422.596 335.784 426.482 329.945C430.384 324.105 436.526 320.666 443.335 320.496L648.38 315.57C654.729 315.415 660.841 318.25 664.98 323.362C669.119 328.473 670.81 335.165 669.608 341.748L665.737 362.938C663.823 373.455 655.174 380.875 645.012 380.875L645.027 380.89Z" fill="rgb(9,8,20)" fill-rule="nonzero" />
			<ellipse id="Oval 9" rx="30.411127" ry="31.753906" cx="193.711426" cy="559.703491" fill="rgb(9,8,20)" />
			<path id="Vector 9" d="M724.764 469.306C720.017 469.306 715.492 466.657 713.074 462.087L698.047 433.679C695.659 429.172 695.807 423.89 698.418 419.537C701.029 415.169 705.538 412.722 710.434 413.001L737.715 414.457C742.788 414.735 747.357 418.066 749.345 422.96L757.311 442.632C758.765 446.241 758.736 450.176 757.208 453.754C755.68 457.317 752.891 459.996 749.36 461.266L729.155 468.547C727.716 469.073 726.233 469.321 724.779 469.321L724.764 469.306Z" fill="rgb(9,8,20)" fill-rule="nonzero" />
			<path id="Vector 10" d="M379.783 658.11C379.56 658.11 379.323 658.11 379.101 658.063L373.048 657.366C371.075 657.134 369.354 655.972 368.345 654.175C367.337 652.378 367.203 650.256 367.975 648.336L399.483 570.206L400.166 570.5L399.483 570.206C400.344 568.068 402.257 566.55 404.468 566.256C406.619 565.977 408.711 566.86 410.09 568.61C411.455 570.36 411.87 572.684 411.173 574.821L385.732 653.649C384.871 656.313 382.438 658.094 379.798 658.094L379.783 658.11Z" fill="rgb(9,8,20)" fill-rule="nonzero" />
			<path id="Vector 11" d="M543.366 112.888C543.366 112.888 531.839 88.8165 534.138 67.1619L495.776 87.9181L497.259 127.324L543.366 112.888Z" fill="rgb(218,138,141)" fill-rule="nonzero" />
			<ellipse id="Oval 10" rx="34.609348" ry="36.137466" cx="519.555664" cy="62.9022369" fill="rgb(218,138,141)" />
			<path id="Vector 12" d="M554.906 630.321L533.782 630.321L523.739 545.267L554.906 545.267L554.906 630.321Z" fill="rgb(218,138,141)" fill-rule="nonzero" />
			<path id="Vector 13" d="M482.558 629.81C481.905 630.972 481.549 634.705 481.549 636.037C481.549 640.173 484.754 643.518 488.714 643.518L554.106 643.518C556.806 643.518 559.001 641.226 559.001 638.407L559.001 635.557C559.001 635.557 562.235 627.006 555.575 616.489C555.575 616.489 547.297 624.729 534.925 611.826L531.275 604.933L504.869 625.101L490.228 626.975C487.023 627.393 484.19 626.913 482.543 629.81L482.558 629.81Z" fill="rgb(9,8,20)" fill-rule="nonzero" />
			<path id="Vector 14" d="M492.646 112.888L543.365 105.669L582.559 124.923L584.858 274.151C584.858 274.151 488.462 286.186 473.271 270.542C458.081 254.897 469.607 129.74 469.607 129.74L492.66 112.887L492.646 112.887L492.646 112.888Z" fill="rgb(255,149,84)" fill-rule="nonzero" />
			<path id="Vector 15" d="M510.892 72.1032L501.591 72.1032C501.591 72.1032 493.521 61.7251 494.604 68.0449C495.687 74.3647 491.34 81.1646 491.34 81.1646L484.828 78.9031C484.828 78.9031 471.803 21.6997 510.892 18.5553C549.982 15.4108 558.675 47.1647 558.675 47.1647C558.675 47.1647 556.509 63.0417 552.162 58.5032C547.816 53.9647 523.932 51.7032 523.932 51.7032L510.907 72.1187L510.892 72.1031L510.892 72.1032Z" fill="rgb(9,8,20)" fill-rule="nonzero" />
			<path id="Vector 16" d="M486.281 611.207L465.973 617.186L434.167 538.204L464.163 529.359L486.281 611.207Z" fill="rgb(218,138,141)" fill-rule="nonzero" />
			<path id="Vector 17" d="M416.529 631.25C416.202 632.552 416.84 636.238 417.181 637.539C418.25 641.52 422.21 643.828 426.023 642.713L488.952 624.156C491.548 623.397 493.061 620.562 492.334 617.852L491.592 615.11C491.592 615.11 492.482 605.971 483.329 597.731C483.329 597.731 477.514 608.016 462.249 599.094L456.938 593.487L436.778 620.377L423.19 626.34C420.223 627.641 417.359 627.998 416.529 631.25L416.529 631.25Z" fill="rgb(9,8,20)" fill-rule="nonzero" />
			<path id="Vector 18" d="M577.93 259.714L584.843 281.555L584.843 356.603L564.089 583.124L523.561 583.124L518.992 421.427L522.597 341.562L445.293 463.683L479.265 550.905L441.866 576.944C441.866 576.944 385.94 443.872 394.306 430.969C402.673 418.081 477.618 265.864 477.618 265.864C477.618 265.864 577.901 262.131 577.901 259.73L577.93 259.714Z" fill="rgb(9,8,20)" fill-rule="nonzero" />
			<path id="Vector 19" d="M598.684 173.065L609.825 192.117C609.825 192.117 625.579 256.771 609.825 257.035C594.07 257.298 562.265 224.088 562.265 224.088L566.418 206.755L577.945 211.572L575.646 173.065L598.699 173.065L598.684 173.065Z" fill="rgb(218,138,141)" fill-rule="nonzero" />
			<path id="Vector 20" d="M564.104 124.629C564.104 124.629 600.983 117.844 604.44 143.046C607.896 168.248 609.825 192.133 609.825 192.133L569.86 195.587L564.104 124.629L564.104 124.629Z" fill="rgb(255,149,84)" fill-rule="nonzero" />
			<path id="Vector 21" d="M875.959 475.207C871.272 475.734 866.154 476.524 860.709 477.686C837.641 482.596 837.152 498.953 837.359 502.701L837.196 502.593C834.882 506.481 833.428 510.415 832.538 514.117L831.485 463.977C832.167 462.49 832.79 460.802 833.31 459.082C835.03 464.643 837.864 469.879 840.311 469.538C843.486 469.089 844.866 459.33 844.272 452.406C848.307 457.828 855.102 463.636 857.668 461.84C859.715 460.415 858.499 454.528 856.274 449.169C860.932 452.097 866.094 454.017 867.696 452.159C869.877 449.618 864.64 440.959 859.819 436.127C866.272 436.762 874.491 435.677 875.04 432.611C875.485 430.086 870.589 426.895 865.352 424.835C870.604 423.394 875.529 420.869 875.366 418.376C875.173 415.417 867.874 413.419 861.57 413.124C866.317 409.252 870.678 403.877 869.343 401.461C868.112 399.23 862.415 400.098 857.149 402.065C860.264 397.418 862.46 392.167 860.783 390.37C858.707 388.14 851.334 391.997 846.29 396.256C847.269 389.611 846.779 381.231 843.916 380.472C841.528 379.837 838.146 384.716 835.831 390.029C834.808 384.453 832.731 379.156 830.343 379.156C826.931 379.156 824.171 389.89 824.171 396.891C824.171 397.294 824.171 397.666 824.201 398.022C823.86 397.604 823.459 397.17 823.014 396.721C818.208 391.842 808.907 386.436 806.518 388.992C804.857 390.788 807.037 396.024 810.153 400.686C804.886 398.719 799.175 397.852 797.959 400.082C796.312 403.072 803.358 410.553 809.085 414.178C808.743 414.131 808.373 414.1 807.987 414.069C801.296 413.589 790.853 415.742 790.615 419.289C790.452 421.783 795.363 424.308 800.629 425.749C795.392 427.809 790.512 431 790.942 433.524C791.476 436.591 799.694 437.676 806.162 437.041C801.341 441.873 796.104 450.532 798.285 453.072C799.887 454.931 805.05 453.01 809.708 450.083C807.468 455.442 806.266 461.328 808.313 462.753C811.013 464.643 818.445 458.06 822.347 452.406C821.946 459.33 823.534 468.841 826.679 469.213C827.999 469.368 829.393 467.896 830.654 465.65L827.094 519.539C826.263 525.812 831.589 529.917 832.063 532.488L832.835 568.982C831.96 566.38 830.803 563.715 829.215 561.082L829.052 561.191C829.26 557.442 828.77 541.085 805.702 536.175C800.258 535.013 795.14 534.223 790.452 533.696C784.919 533.077 782.753 540.992 787.752 543.548C794.992 547.25 801.801 551.912 805.361 557.427C814.44 571.538 826.975 563.39 828.77 562.12C830.758 565.59 832.063 569.075 832.894 572.39L833.31 591.767C833.206 592.232 833.147 592.48 833.132 592.495L833.325 592.557L834.318 639.46L843.486 639.383L840.208 591.442C840.757 588.855 842.448 580.042 840.208 570.903L836.929 533.232L832.657 518.423C833.28 513.839 834.719 508.696 837.656 503.6C839.436 504.87 851.986 513.033 861.065 498.906C864.611 493.392 871.435 488.73 878.674 485.028C883.673 482.472 881.522 474.557 875.974 475.176L875.959 475.207ZM834.081 586.175L833.903 577.966C834.244 581.064 834.229 583.867 834.081 586.175Z" fill="rgb(242,242,242)" fill-rule="nonzero" />
			<path id="Vector 22" d="M769.194 633.636L785.141 630.042L779.43 564.149L755.917 569.447L769.194 633.636Z" fill="rgb(218,138,141)" fill-rule="nonzero" />
			<path id="Vector 23" d="M823.726 620.95C824.409 621.709 825.254 624.466 825.462 625.488C826.115 628.602 824.216 631.684 821.219 632.35L771.864 643.487C769.832 643.952 767.814 642.589 767.369 640.467L766.924 638.314C766.924 638.314 763.141 632.412 766.524 623.335C766.524 623.335 774.06 628.152 781.373 616.287L783.049 610.463L806.132 621.182L817.466 620.113C819.943 619.881 822.02 619.029 823.711 620.95L823.726 620.95Z" fill="rgb(9,8,20)" fill-rule="nonzero" />
			<path id="Vector 24" d="M797.706 628.602L810.998 618.75L780.928 560.509L761.302 575.038L797.706 628.602Z" fill="rgb(218,138,141)" fill-rule="nonzero" />
			<path id="Vector 25" d="M843.056 594.524C843.961 594.943 845.785 597.127 846.349 597.979C848.114 600.581 847.536 604.19 845.044 606.033L803.862 636.548C802.156 637.803 799.812 637.384 798.596 635.619L797.38 633.822C797.38 633.822 791.683 629.949 791.372 620.206C791.372 620.206 800.109 621.538 802.379 607.629L801.726 601.588L826.99 601.96L837.018 596.321C839.214 595.082 840.801 593.456 843.071 594.524L843.056 594.524Z" fill="rgb(9,8,20)" fill-rule="nonzero" />
			<path id="Vector 26" d="M606.146 302.776C606.146 302.776 581.357 337.968 630.935 377.545L732.182 343.762L696.015 265.012L663.986 246.672L606.131 302.76L606.146 302.776Z" fill="rgb(9,8,20)" fill-rule="nonzero" />
			<path id="Vector 27" d="M732.196 343.777L771.449 423.596L796.253 589.738L765.263 591.891L734.258 434.392L679.503 349.168L717.732 330.828" fill="rgb(9,8,20)" fill-rule="nonzero" />
			<path id="Vector 28" d="M630.949 352.482L630.949 377.56L701.206 458.122C701.206 458.122 701.206 518.532 728.072 546.584L759.062 596.213L785.927 581.11L746.675 436.56L676.417 341.624L630.964 352.482L630.949 352.482Z" fill="rgb(9,8,20)" fill-rule="nonzero" />
			<path id="Vector 29" d="M680.868 103.888L667.635 156.568L617.183 146.206C617.183 146.206 652.385 108.303 647.431 91.0316L680.883 103.888L680.868 103.888L680.868 103.888Z" fill="rgb(218,138,141)" fill-rule="nonzero" />
			<path id="Vector 30" d="M642.313 111.834L673.302 126.937C673.302 126.937 689.25 137.113 689.546 143.898C689.843 150.682 687.766 183.04 687.766 183.04C687.766 183.04 700.168 195.99 691.905 221.873L696.044 265.027L603.06 316.81L611.323 226.195L607.184 142.055L642.313 111.85L642.313 111.834Z" fill="rgb(9,8,20)" fill-rule="nonzero" />
			<path id="uuid-b20491ca-d014-4267-80bf-8d89e5c8d575-253" d="M614.498 357.377C618.132 366.067 625.372 371.163 630.668 368.746C635.964 366.33 637.314 357.331 633.694 348.641C632.285 345.14 630.104 342.058 627.315 339.626L611.486 302.993L595.183 311.109L612.51 346.364C612.317 350.143 613 353.923 614.498 357.377Z" fill="rgb(218,138,141)" fill-rule="nonzero" />
			<path id="Vector 31" d="M630.95 147.445C630.95 147.445 608.223 132.343 599.96 149.598C591.697 166.854 573.094 255.315 573.094 255.315L599.96 339.455L624.749 328.675L603.045 238.122L630.935 147.445L630.95 147.445L630.95 147.445Z" fill="rgb(9,8,20)" fill-rule="nonzero" />
			<path id="uuid-d10d18a7-d2df-49f8-8380-3f7f98fc3932-254" d="M747.446 343.793C753.884 350.484 762.414 352.436 766.494 348.145C770.573 343.854 768.645 334.979 762.207 328.287C759.67 325.577 756.54 323.548 753.098 322.355L725.461 294.38L713.163 308.197L741.705 334.297C742.862 337.891 744.835 341.144 747.446 343.777L747.446 343.793Z" fill="rgb(218,138,141)" fill-rule="nonzero" />
			<path id="Vector 32" d="M688.671 142.287C688.671 142.287 649.048 140.599 647.446 159.821C645.858 179.044 672.946 264.826 672.946 264.826L727.612 332.717L746.853 313.154L694.739 237.316L688.686 142.287L688.671 142.287Z" fill="rgb(9,8,20)" fill-rule="nonzero" />
			<ellipse id="Oval 11" rx="12.520569" ry="13.073303" cx="868.764221" cy="640.497864" fill="rgb(9,8,20)" />
			<ellipse id="Oval 12" rx="12.520508" ry="13.073273" cx="885.453613" cy="660.773804" fill="rgb(9,8,20)" />
			<ellipse id="Oval 13" rx="12.520537" ry="13.073273" cx="1010.62842" cy="660.773804" fill="rgb(9,8,20)" />
			<path id="Vector 33" d="M903.789 465.139L903.789 323.176C903.789 307.283 916.517 303.349 931.738 303.349C939.2 303.349 942.819 302.451 948.056 307.996C953.293 313.541 959.108 315.849 958.989 323.64L956.794 462.939L903.774 465.124L903.789 465.139ZM933.221 312.658C919.633 312.658 906.756 309.003 906.756 323.191L906.756 461.933L953.886 459.981L956.037 323.609C956.141 316.655 945.312 317.615 940.653 312.658C935.98 307.701 939.897 312.658 933.236 312.658L933.221 312.658Z" fill="rgb(9,8,20)" fill-rule="nonzero" />
			<path id="Vector 34" d="M866.524 463.42L864.625 618.518C864.596 620.516 865.056 622.483 865.946 624.249L879.979 651.929C882.041 656.003 886.165 658.466 890.571 658.265L1013.79 652.595C1020.09 652.301 1024.97 646.725 1024.69 640.142L1016.96 463.048C1016.68 456.682 1011.67 451.663 1005.56 451.663L877.932 451.663C871.687 451.663 866.598 456.914 866.509 463.435L866.524 463.42Z" fill="rgb(202,202,202)" fill-rule="nonzero" />
			<path id="Vector 35" d="M915.093 533.417L912.126 533.263L913.224 510.307C913.817 497.946 923.563 488.033 935.417 487.738L987.887 486.468C998.479 486.282 1007.26 494.662 1007.84 505.722L1008.95 526.71L1005.99 526.881L1004.87 505.892C1004.37 496.521 996.877 489.334 987.946 489.566L935.476 490.836C925.166 491.084 916.695 499.712 916.176 510.462L915.078 533.417L915.093 533.417Z" fill="rgb(9,8,20)" fill-rule="nonzero" />
			<path id="Vector 36" d="M913.001 644.603L910.049 644.293L916.443 579.143C917.63 567.092 927.258 557.597 938.843 557.055L990.023 554.654C996.476 554.344 1002.6 556.729 1007.29 561.361C1011.98 565.992 1014.59 572.25 1014.66 578.988L1015.24 635.711L1012.28 635.742L1011.7 579.019C1011.64 573.133 1009.35 567.665 1005.26 563.607C1001.16 559.549 995.779 557.473 990.171 557.736L938.992 560.137C928.86 560.617 920.448 568.904 919.41 579.437L913.016 644.587L913.001 644.603Z" fill="rgb(9,8,20)" fill-rule="nonzero" />
			<path id="Vector 37" d="M890.067 640.095L887.1 640.049L888.969 491.162C889.103 480.985 896.832 472.775 906.578 472.465L1007.45 469.368L1007.54 472.465L906.667 475.563C898.508 475.811 892.04 482.673 891.936 491.193L890.067 640.08L890.067 640.095Z" fill="rgb(9,8,20)" fill-rule="nonzero" />
			<path id="Vector 38" d="M890.334 618.89L888.272 618.89L888.272 483.293C888.272 479.002 884.934 475.501 880.81 475.501L869.284 475.501L869.284 472.404L880.81 472.404C886.255 472.404 890.735 476.787 891.195 482.332C891.224 482.642 891.239 482.968 891.239 483.293L891.239 547.498L890.334 618.89Z" fill="rgb(9,8,20)" fill-rule="nonzero" />
			<path id="Vector 39" d="M702.408 75.7277C702.408 95.5855 686.995 111.679 667.977 111.679C648.959 111.679 633.545 95.5855 633.545 75.7277C633.545 55.8699 648.959 39.7761 667.977 39.7761C686.995 39.7761 702.408 55.8699 702.408 75.7277L702.408 75.7277Z" fill="rgb(218,138,141)" fill-rule="nonzero" />
			<path id="Vector 40" d="M665.232 27.3999C666.226 28.004 667.561 27.0901 667.888 25.9283C668.214 24.7666 667.828 23.5429 667.472 22.3967C666.849 20.476 666.241 18.5707 665.618 16.65C664.298 12.5762 662.903 8.36301 660.055 5.26507C655.753 0.587181 648.899 -0.605527 642.743 0.261897C634.836 1.37716 627.033 5.83819 623.354 13.2423C619.675 20.6463 621.247 30.9625 627.893 35.5784C618.414 46.9169 615.12 59.5565 615.64 74.5815C616.159 89.622 631.854 103.454 642.09 114.049C644.375 112.609 646.451 105.824 645.19 103.361C643.929 100.898 645.739 98.0484 644.182 95.7714C642.624 93.5099 641.319 97.119 642.891 94.8575C643.885 93.4325 640.013 90.1641 641.482 89.3122C648.617 85.1919 650.991 75.8981 655.471 68.7883C660.885 60.207 670.128 54.3984 679.933 53.438C685.333 52.9114 691.03 53.8717 695.45 57.1401C699.871 60.4084 702.734 66.248 701.711 71.8088C704.366 68.9897 705.686 64.8694 705.197 60.9506C704.692 57.0317 702.393 53.4071 699.115 51.4089C701.102 44.547 699.396 36.6472 694.783 31.3497C690.169 26.0368 671.463 26.9507 664.728 28.3447L665.247 27.4153L665.232 27.3998L665.232 27.3999Z" fill="rgb(9,8,20)" fill-rule="nonzero" />
			<path id="Vector 41" d="M664.194 53.6394C655.278 54.6462 648.84 62.7164 643.396 70.1669C640.265 74.4576 636.972 79.1974 637.061 84.6033C637.135 90.0557 640.636 94.7491 642.313 99.9071C645.042 108.365 642.387 118.417 635.889 124.21C642.313 125.481 649.255 120.462 650.353 113.724C651.644 105.902 645.962 98.3427 646.629 90.4274C647.223 83.4571 652.489 78.0976 656.954 72.8776C661.435 67.6576 665.633 60.7492 663.571 54.0886L664.194 53.6394L664.194 53.6394L664.194 53.6394Z" fill="rgb(9,8,20)" fill-rule="nonzero" />
			<path id="Vector 42" d="M482.237 291.728L430.196 245.423C428.96 244.323 428.862 242.316 429.978 240.949L514.262 137.673C515.378 136.306 517.291 136.089 518.527 137.189L570.569 183.494C571.805 184.594 571.903 186.601 570.787 187.968L486.502 291.243C485.387 292.611 483.473 292.828 482.237 291.728Z" fill="rgb(255,255,255)" fill-rule="nonzero" />
			<path id="Vector 43" d="M430.196 245.423C428.96 244.323 428.862 242.316 429.978 240.949L514.262 137.673C515.378 136.306 517.291 136.089 518.527 137.189L570.569 183.494C571.805 184.594 571.903 186.601 570.787 187.968L486.502 291.243C485.387 292.611 483.473 292.828 482.237 291.728L430.196 245.423Z" fill-rule="nonzero" stroke="rgb(47,46,65)" stroke-width="1" />
			<path id="Vector 44" d="M457.161 143.154L436.215 147.677C436.215 147.677 380.228 179.85 390.82 192.04C401.397 204.23 446.361 205.795 446.361 205.795L455.648 190.785L444.403 185.286L472.916 160.735L457.161 143.154L457.161 143.154Z" fill="rgb(218,138,141)" fill-rule="nonzero" />
			<path id="Vector 45" d="M514.66 136.416C514.66 136.416 494.203 103.656 474.221 118.247C454.238 132.838 436.229 147.677 436.229 147.677L461.122 180.5L514.675 136.416L514.66 136.416L514.66 136.416Z" fill="rgb(255,149,84)" fill-rule="nonzero" />
			<ellipse id="Oval 14" rx="10.856043" ry="20.850004" cx="10.8560429" cy="20.8500042" fill="rgb(218,138,141)" transform="matrix(0.190265,-0.981733,0.978397,0.206732,439.034,207.491)" />
			<ellipse id="Oval 15" rx="10.721208" ry="21.126827" cx="10.7212076" cy="21.1268272" fill="rgb(218,138,141)" transform="matrix(0.563508,-0.826111,0.802424,0.596754,532.168,205.62)" />
		</g>
	</g>
</svg>
